<svg width="100%" height="100%" viewBox="0 0 2100 2100" version="1.1" xmlns="http://www.w3.org/2000/svg" xmlnsXlink="http://www.w3.org/1999/xlink" xmlSpace="preserve" xmlnsSerif="http://www.serif.com/" style="fill-rule:evenodd;clip-rule:evenodd;stroke-linejoin:round;stroke-miterlimit:2;">
    <g transform="matrix(3.49787,0,0,3.49787,-2517.77,-4521.53)">
        <path d="M1041,1763C1041,1763 1075.2,1749.72 1099,1735C1122.8,1720.28 1145.65,1703.99 1157,1692C1168.35,1680.02 1193.03,1652 1193.03,1652C1193.03,1652 1209.13,1649.23 1231,1672C1252.87,1694.77 1242.6,1742.05 1222,1756C1201.4,1769.95 1200.3,1767.5 1168,1767.76C1135.7,1768.02 1082.18,1768.26 1061,1767.76C1050.15,1767.5 1041,1763 1041,1763ZM845,1766C874.282,1768.37 938.483,1769.65 978,1761C1017.52,1752.35 1063.83,1743.89 1112,1707C1160.17,1670.11 1174.17,1651 1183,1639C1191.83,1627 1197.14,1603.84 1189,1584C1180.86,1564.16 1161.07,1544.1 1136,1546C1110.93,1547.9 1097.75,1556.87 1085,1573C1072.26,1589.13 1047.86,1611.82 1030,1620C1012.14,1628.18 973.137,1649.14 918,1649C862.863,1648.86 844.287,1648.05 831,1654C817.713,1659.95 800.87,1675.35 798,1694C795.13,1712.65 796.852,1730.99 807,1743C817.148,1755.01 828.236,1764.64 845,1766ZM863,1632C863,1632 831.654,1573.59 872,1550C912.346,1526.41 939.613,1550.8 963,1517C986.387,1483.2 977.854,1422.95 994.891,1418C1007.97,1414.2 1025.84,1439.94 1037,1466C1048.56,1493.01 1083.35,1491.71 1091,1505C1098.65,1518.29 1098,1538 1098,1538C1098,1538 1090.05,1542.84 1073,1563C1055.95,1583.16 1046.21,1590 1032,1599C1017.79,1608 992.409,1621.75 966,1628C939.591,1634.25 863,1632 863,1632Z"/>
        <path d="M840.343,1630.85C833.008,1631.87 827.553,1633.36 822.726,1635.52C804.479,1643.69 781.927,1665.31 777.985,1690.92C774.152,1715.83 777.978,1740.03 791.533,1756.07C805.228,1772.28 820.742,1784.35 843.365,1786.18C873.962,1788.66 941.04,1789.82 982.332,1780.78C995.147,1777.98 1008.62,1775.15 1022.61,1771.45C1024.51,1775.61 1027.8,1779.08 1032.06,1781.17C1032.06,1781.17 1045.08,1787.64 1060.52,1788C1081.82,1788.51 1135.67,1788.27 1168.16,1788.01C1207.29,1787.7 1208.4,1789.67 1233.36,1772.77C1247.49,1763.2 1259.15,1742.77 1262.46,1720.25C1265.79,1697.59 1260.7,1673.69 1245.61,1657.97C1231.14,1642.91 1218.12,1636.21 1208.29,1633.39C1214.09,1616.77 1215.57,1595.41 1207.74,1576.32C1196.63,1549.25 1168.68,1523.22 1134.47,1525.81C1128.38,1526.27 1122.83,1527.06 1117.73,1528.18C1116.89,1518.96 1114.61,1505.42 1108.55,1494.89C1104.41,1487.7 1096.69,1481.78 1086.19,1477.24C1081.01,1474.99 1074.92,1472.91 1068.99,1470.02C1063.77,1467.48 1058.34,1464.38 1055.62,1458.03C1046.28,1436.23 1032.35,1415.07 1019.87,1405.62C1009.29,1397.61 998.516,1395.86 989.241,1398.55C978.892,1401.56 969.318,1412.08 965.145,1430.77C962.704,1441.7 961.273,1456.46 958.4,1471.49C956.103,1483.51 952.991,1495.87 946.347,1505.48C936.951,1519.06 925.911,1516.85 913.314,1517.73C898.168,1518.79 881.267,1521.12 861.778,1532.52C838.185,1546.31 830.849,1567.98 831.154,1589.34C831.383,1605.33 836.376,1620.93 840.343,1630.85ZM1041,1763C1041,1763 1075.2,1749.72 1099,1735C1122.8,1720.28 1145.65,1703.99 1157,1692C1168.35,1680.02 1193.03,1652 1193.03,1652C1193.03,1652 1209.13,1649.23 1231,1672C1252.87,1694.77 1242.6,1742.05 1222,1756C1201.4,1769.95 1200.3,1767.5 1168,1767.76C1135.7,1768.02 1082.18,1768.26 1061,1767.76C1050.15,1767.5 1041,1763 1041,1763ZM845,1766C874.282,1768.37 938.483,1769.65 978,1761C1017.52,1752.35 1063.83,1743.89 1112,1707C1160.17,1670.11 1174.17,1651 1183,1639C1191.83,1627 1197.14,1603.84 1189,1584C1180.86,1564.16 1161.07,1544.1 1136,1546C1110.93,1547.9 1097.75,1556.87 1085,1573C1072.26,1589.13 1047.86,1611.82 1030,1620C1012.14,1628.18 973.137,1649.14 918,1649C862.863,1648.86 844.287,1648.05 831,1654C817.713,1659.95 800.87,1675.35 798,1694C795.13,1712.65 796.852,1730.99 807,1743C817.148,1755.01 828.236,1764.64 845,1766ZM863,1632C863,1632 831.654,1573.59 872,1550C912.346,1526.41 939.613,1550.8 963,1517C986.387,1483.2 977.854,1422.95 994.891,1418C1007.97,1414.2 1025.84,1439.94 1037,1466C1048.56,1493.01 1083.35,1491.71 1091,1505C1098.65,1518.29 1098,1538 1098,1538C1098,1538 1090.05,1542.84 1073,1563C1055.95,1583.16 1046.21,1590 1032,1599C1017.79,1608 992.409,1621.75 966,1628C939.591,1634.25 863,1632 863,1632Z" style="fill:white;"/>
    </g>
</svg>
