<svg width="100%" height="100%" viewBox="0 0 2100 2100" version="1.1" xmlns="http://www.w3.org/2000/svg" xmlnsXlink="http://www.w3.org/1999/xlink" xmlSpace="preserve" xmlnsSerif="http://www.serif.com/" style="fill-rule:evenodd;clip-rule:evenodd;stroke-linejoin:round;stroke-miterlimit:2;">
    <path d="M345.636,1083.11C404.146,1083.28 450.843,1094.22 485.728,1115.95C498.57,1128.79 507.991,1138.53 513.991,1145.16C519.991,1151.79 525.781,1159.53 531.36,1168.37C536.939,1177.21 540.834,1185.9 543.044,1194.42C545.255,1202.95 546.781,1213.42 547.623,1225.84L536.255,1237.21C493.096,1238.9 444.674,1239.74 390.989,1239.74C384.252,1239.74 378.831,1239 374.726,1237.53C370.621,1236.06 367.884,1234.16 366.515,1231.84C365.147,1229.53 363.778,1227.11 362.41,1224.58C361.041,1222.06 359.778,1219.63 358.62,1217.32C357.462,1215 355.041,1213.11 351.357,1211.63C347.673,1210.16 342.778,1209.42 336.673,1209.42C334.988,1209.42 332.304,1209.74 328.62,1210.37C324.936,1211 320.62,1212 315.672,1213.37C310.725,1214.74 306.462,1216.84 302.883,1219.69C299.304,1222.53 297.514,1225.84 297.514,1229.63C297.514,1234.27 299.883,1238.48 304.619,1242.27C309.356,1246.06 314.356,1248.79 319.62,1250.48C324.883,1252.16 331.409,1254 339.199,1256C346.989,1258 351.831,1259.32 353.726,1259.95C399.621,1271.53 426.99,1278.69 435.832,1281.42C481.938,1295.95 514.57,1315 533.728,1338.58C551.413,1360.48 560.255,1387.95 560.255,1421.01C560.255,1441.01 557.676,1459.22 552.518,1475.64C547.36,1492.06 540.571,1505.95 532.149,1517.32C523.728,1528.69 513.202,1538.8 500.57,1547.64C487.938,1556.48 475.149,1563.53 462.201,1568.8C449.253,1574.06 434.569,1578.48 418.148,1582.06C401.726,1585.64 386.621,1588.22 372.831,1589.8C359.041,1591.38 344.041,1592.59 327.83,1593.43C302.988,1592.38 280.672,1590.22 260.882,1586.96C241.092,1583.69 221.987,1578.43 203.565,1571.17C185.144,1563.9 169.67,1554.74 157.143,1543.69C144.617,1532.64 134.196,1518.48 125.88,1501.22C117.564,1483.95 112.458,1463.95 110.564,1441.22C110.564,1437.22 112.669,1434.9 116.88,1434.27C118.143,1434.69 120.248,1434.9 123.195,1434.9C139.577,1434.9 163.916,1434.53 196.211,1433.79L209.341,1433.48C241.636,1432.74 265.974,1432.37 282.356,1432.37C286.777,1432.37 290.251,1433.8 292.777,1436.64C295.304,1439.48 297.356,1442.95 298.935,1447.06C300.514,1451.16 302.409,1455.27 304.619,1459.37C306.83,1463.48 310.62,1466.95 315.988,1469.8C321.357,1472.64 328.251,1474.06 336.673,1474.06C346.989,1474.06 356.094,1471.16 363.989,1465.38C371.884,1459.59 375.831,1451.74 375.831,1441.85C375.831,1435.32 372.463,1429.32 365.726,1423.85C358.989,1418.37 350.094,1413.9 339.041,1410.43C327.988,1406.95 317.462,1404.01 307.462,1401.58C297.461,1399.16 287.198,1397.06 276.672,1395.27C266.145,1393.48 260.04,1392.37 258.356,1391.95C207.197,1378.06 170.407,1360.79 147.985,1340.16C125.564,1319.53 114.353,1291.32 114.353,1255.53C114.353,1230.27 118.985,1207.58 128.248,1187.48C137.512,1167.37 149.617,1150.95 164.565,1138.21C179.512,1125.47 197.197,1114.84 217.618,1106.32C238.039,1097.79 258.671,1091.79 279.514,1088.32C300.356,1084.84 321.936,1083.11 344.252,1083.11L345.636,1083.11Z"/>
    <path d="M1370.04,1097.15L1392.06,1097L1445.11,1097C1448.27,1097 1450.9,1097.05 1453.01,1097.16C1455.11,1097.26 1457.64,1097.53 1460.59,1097.95C1463.53,1098.37 1465.9,1099 1467.69,1099.84C1469.48,1100.68 1471.01,1101.95 1472.27,1103.63C1473.53,1105.32 1474.16,1107.32 1474.16,1109.63L1619.75,1571.01C1619.75,1575.22 1618.22,1578.11 1615.17,1579.69C1612.11,1581.27 1606.38,1582.06 1597.96,1582.06L1568.9,1582.06L1493.74,1582.69C1491.22,1582.69 1486.11,1582.85 1478.43,1583.17C1470.74,1583.48 1464.27,1583.59 1459.01,1583.48C1453.74,1583.38 1447.9,1583.06 1441.48,1582.53C1435.06,1582.01 1429.9,1580.85 1426.01,1579.06C1422.11,1577.27 1419.64,1574.9 1418.59,1571.95L1418.59,1551.11C1416.48,1540.59 1412.8,1530.9 1407.53,1522.06C1402.27,1513.22 1396.69,1508.8 1390.8,1508.8L1282.16,1508.8L1265.74,1575.75C1263.42,1580.8 1251.63,1583.32 1230.37,1583.32L1205.11,1583.32C1196.06,1583.32 1182.58,1583.64 1164.69,1584.27C1146.79,1584.9 1133.32,1585.22 1124.26,1585.22L1115.42,1585.22C1112.05,1585.22 1106.74,1585.32 1099.47,1585.53C1092.21,1585.75 1086.58,1585.85 1082.58,1585.85C1080.89,1584.17 1077.95,1580.38 1073.74,1574.48C1086.79,1526.27 1101.21,1477.32 1117,1427.64C1128.36,1391.88 1141.71,1351.09 1157.07,1305.25C1195,1305.38 1243.35,1305.12 1276.85,1304.86C1291.19,1304.74 1302.07,1304.85 1310.9,1304.69L1292.9,1382.79L1301.74,1397.64L1322.58,1397.64C1339.43,1397.64 1354.85,1396.64 1368.85,1394.64C1382.85,1392.64 1389.85,1389.43 1389.85,1385.01L1367.73,1286.25L1373.36,1282.55C1393.87,1268.66 1410.56,1238.91 1415.36,1206.24C1420.18,1173.39 1413.04,1138.69 1391.16,1115.9C1383.82,1108.26 1376.74,1102.1 1370.04,1097.15Z"/>
    <path d="M724.391,1099.53C705.838,1115.09 689.272,1137.73 685.366,1163.11C679.782,1199.39 685.018,1234.72 704.762,1258.08C724.68,1281.65 747.124,1299.42 780.027,1302.08C826.49,1305.85 928.353,1307.66 991.056,1293.93C1011.68,1289.41 1033.43,1284.88 1056.04,1278.75L1056.37,1304.79C1057,1348.16 1057.32,1380.79 1057.32,1402.69C1057.32,1404.58 1057.21,1406.95 1057,1409.8C1056.79,1412.64 1056.68,1414.48 1056.68,1415.32L1056.68,1430.48C1056.68,1443.95 1056.89,1454.06 1057.32,1460.8L1057.32,1467.74C1056.89,1468.59 1056.68,1469.85 1056.68,1471.53C1056.68,1482.69 1056.89,1499.64 1057.32,1522.38C1057.74,1545.11 1057.95,1562.06 1057.95,1573.22C1056.47,1580.8 1036.26,1584.59 997.315,1584.59L865.944,1584.59L856.471,1571.32L856.471,1550.48C856.471,1536.38 856.576,1515.53 856.786,1487.95C856.997,1460.38 857.102,1439.53 857.102,1425.43C857.102,1420.58 856.523,1417.27 855.365,1415.48C854.207,1413.69 851.839,1412.8 848.26,1412.8L836.891,1412.8C822.575,1412.8 809.522,1413.64 797.733,1415.32C797.733,1432.8 797.522,1459.06 797.101,1494.11C796.68,1529.16 796.47,1555.53 796.47,1573.22C793.943,1579.53 767.627,1582.69 717.521,1582.69L680.257,1582.69C674.362,1582.69 667.52,1582.85 659.731,1583.17C651.941,1583.48 645.941,1583.75 641.73,1583.95C637.52,1584.17 632.73,1584.11 627.362,1583.8C621.993,1583.48 617.94,1582.75 615.203,1581.59C612.467,1580.43 609.572,1578.69 606.519,1576.38C603.466,1574.06 601.256,1570.9 599.887,1566.9C598.519,1562.9 597.361,1557.95 596.414,1552.06C595.466,1546.16 594.993,1539.11 594.993,1530.9C594.993,1485.43 595.835,1423.37 597.519,1344.74C599.203,1266.11 600.045,1208.37 600.045,1171.53C600.045,1126.05 602.361,1102.05 606.993,1099.53L724.391,1099.53Z"/>
    <path d="M1973.49,1099.7C1980.06,1100.06 1984.41,1100.95 1986.54,1102.37C1989.38,1104.26 1990.81,1107.95 1990.81,1113.42L1990.81,1122.26C1990.81,1133.21 1990.91,1149.37 1991.12,1170.74C1991.33,1192.11 1991.44,1208.37 1991.44,1219.53C1991.44,1230.48 1988.49,1235.95 1982.59,1235.95C1970.8,1235.95 1953.23,1235.74 1929.86,1235.32C1906.49,1234.9 1888.91,1234.69 1877.12,1234.69L1877.12,1573.22C1875.64,1579.53 1872.07,1582.9 1866.38,1583.32C1859.01,1583.32 1848.28,1583.22 1834.17,1583.01C1820.07,1582.8 1809.33,1582.69 1801.96,1582.69C1801.54,1582.69 1801.12,1582.9 1800.7,1583.32C1791.43,1583.32 1778.43,1583.22 1761.7,1583.01C1744.96,1582.8 1732.49,1582.69 1724.27,1582.69L1705.33,1582.69C1701.12,1583.11 1695.01,1583.32 1687.01,1583.32L1674.38,1568.17C1674.38,1544.16 1674.97,1511.4 1676.15,1469.88L1678.92,1380.98C1680.1,1339.45 1680.69,1306.69 1680.69,1282.69C1680.69,1281.21 1680.64,1278.79 1680.54,1275.42C1680.43,1272.06 1680.38,1269.32 1680.38,1267.21C1680.38,1265.11 1680.22,1262.48 1679.9,1259.32C1679.59,1256.16 1679.06,1253.58 1678.33,1251.58C1677.59,1249.58 1676.69,1247.58 1675.64,1245.58C1674.59,1243.58 1673.17,1242.11 1671.38,1241.16C1669.59,1240.21 1667.43,1239.74 1664.9,1239.74L1574.59,1239.74C1568.69,1238.06 1565.75,1223.53 1565.75,1196.16C1565.75,1192.37 1565.96,1186.74 1566.38,1179.27C1566.8,1171.79 1567.01,1166.69 1567.01,1163.95C1567.01,1162.9 1566.8,1159.11 1566.38,1152.58C1565.96,1146.05 1565.75,1140.37 1565.75,1135.53C1565.75,1113.21 1567.85,1102.05 1572.06,1102.05C1573.75,1102.05 1575.22,1102.26 1576.48,1102.68C1620.48,1102.68 1685.69,1102.16 1772.12,1101.11C1858.54,1100.05 1923.23,1099.53 1966.17,1099.53L1973.49,1099.7Z"/>
    <path d="M355.019,1083.11C326.953,1081.92 301.742,1079.48 279.385,1075.79C257.027,1072.11 235.443,1066.16 214.631,1057.95C193.82,1049.75 176.338,1039.4 162.187,1026.91C148.035,1014.43 136.262,998.433 126.867,978.929C117.472,959.426 111.704,936.831 109.564,911.144C109.564,906.625 111.942,904.008 116.699,903.295C118.126,903.771 120.505,904.008 123.834,904.008C143.575,904.008 173.544,903.533 213.74,902.581C253.935,901.63 283.904,901.154 303.645,901.154C308.639,901.154 312.564,902.76 315.418,905.971C318.272,909.182 320.591,913.106 322.375,917.744C324.159,922.382 326.299,927.02 328.797,931.658C331.294,936.296 335.575,940.22 341.64,943.431C347.705,946.642 355.495,948.248 365.008,948.248C376.663,948.248 386.95,944.977 395.869,938.436C404.788,931.896 409.248,923.036 409.248,911.857C409.248,904.484 405.442,897.706 397.831,891.522C390.22,885.338 380.171,880.284 367.684,876.359C355.197,872.435 343.305,869.105 332.008,866.37C320.71,863.634 309.115,861.256 297.223,859.234C285.331,857.213 278.433,855.964 276.53,855.488C218.734,839.791 177.171,820.287 151.841,796.979C126.51,773.67 113.845,741.799 113.845,701.365C113.845,672.824 119.077,647.196 129.543,624.482C140.008,601.768 153.684,583.216 170.571,568.826C187.458,554.437 207.437,542.426 230.508,532.793C253.578,523.16 276.887,516.382 300.434,512.457C323.98,508.533 348.359,506.571 373.571,506.571C440.405,506.571 493.682,518.939 533.402,543.674C547.911,558.183 558.554,569.183 565.333,576.675C572.111,584.167 578.652,592.908 584.955,602.898C591.258,612.887 595.658,622.698 598.155,632.331C600.653,641.964 602.377,653.796 603.328,667.829L590.485,680.673C541.727,682.575 487.023,683.527 426.372,683.527C418.761,683.527 412.637,682.694 407.999,681.029C403.361,679.365 400.269,677.224 398.723,674.608C397.177,671.991 395.631,669.256 394.085,666.402C392.539,663.548 391.112,660.813 389.804,658.196C388.496,655.58 385.76,653.44 381.598,651.775C377.436,650.11 371.906,649.277 365.008,649.277C363.106,649.277 360.073,649.634 355.911,650.348C351.749,651.061 346.873,652.191 341.283,653.737C335.694,655.283 330.878,657.661 326.834,660.872C322.791,664.083 320.769,667.829 320.769,672.11C320.769,677.343 323.445,682.1 328.797,686.381C334.148,690.662 339.797,693.754 345.743,695.657C351.689,697.56 359.062,699.641 367.863,701.9C376.663,704.16 382.133,705.646 384.274,706.36C436.124,719.441 467.044,727.528 477.033,730.62C529.121,747.031 565.987,768.556 587.631,795.195C607.61,819.931 617.599,850.969 617.599,888.311C617.599,910.906 614.686,931.48 608.858,950.031C603.031,968.583 595.361,984.281 585.847,997.125C576.333,1009.97 564.441,1021.38 550.17,1031.37C535.9,1041.36 521.451,1049.33 506.823,1055.28C492.196,1061.22 475.606,1066.22 457.054,1070.26C438.502,1074.31 421.437,1077.22 405.858,1079C390.279,1080.79 373.333,1082.15 355.019,1083.11Z"/>
    <path d="M781.704,1070.97L753.17,1070.97C746.511,1070.97 738.781,1071.15 729.981,1071.51C721.18,1071.87 714.402,1072.16 709.645,1072.4C704.888,1072.64 699.477,1072.58 693.412,1072.22C687.347,1071.87 682.768,1071.04 679.676,1069.73C676.584,1068.42 673.314,1066.46 669.865,1063.84C666.417,1061.22 663.919,1057.66 662.373,1053.14C660.827,1048.62 659.519,1043.03 658.449,1036.37C657.379,1029.71 656.843,1021.74 656.843,1012.47C656.843,961.091 657.795,890.987 659.698,802.152C661.6,713.317 662.552,648.088 662.552,606.465C662.552,555.091 665.168,527.977 670.401,525.123L803.118,525.123C826.664,525.123 844.205,526.49 855.741,529.225C867.276,531.961 874.947,536.063 878.752,541.534C882.558,547.004 884.46,555.329 884.46,566.507C884.46,569.837 884.223,576.319 883.747,585.951C883.271,595.584 883.033,603.611 883.033,610.033L883.033,626.444C883.033,634.055 882.677,645.472 881.963,660.694C881.249,675.916 880.893,687.332 880.893,694.943L880.893,702.079C881.368,703.506 881.606,705.409 881.606,707.787L895.877,707.787C899.92,707.787 906.104,707.906 914.429,708.144C922.753,708.382 928.937,708.5 932.981,708.5C943.921,708.5 952.008,707.787 957.241,706.36L957.241,557.945C957.241,546.053 957.835,537.55 959.025,532.436C960.214,527.323 961.879,524.112 964.019,522.804C966.16,521.495 970.084,520.841 975.793,520.841C978.885,520.841 983.879,520.96 990.777,521.198C997.674,521.436 1002.67,521.555 1005.76,521.555L1032.16,520.485C1050,519.771 1065.94,519.414 1079.97,519.414C1144.66,519.414 1177.01,526.55 1177.01,540.82C1177.01,544.626 1177.13,550.096 1177.37,557.232C1177.6,564.367 1177.72,569.837 1177.72,573.643C1177.72,581.967 1177.6,594.097 1177.37,610.033C1177.13,625.969 1177.01,638.099 1177.01,646.423C1177.01,671.159 1177.37,708.025 1178.08,757.021C1178.75,803.038 1179.11,838.355 1179.12,862.972C1171.71,851.972 1157.08,843.601 1138.93,836.37C1124.83,830.755 1106.69,825.809 1099.04,807.934C1085.2,775.607 1064.7,744.115 1046.19,730.106C1031.81,719.217 1017.21,716.6 1004.6,720.265C990.315,724.415 977.648,739.332 971.889,765.13C968.162,781.826 965.985,804.361 961.598,827.312C958.122,845.497 953.364,864.133 943.859,879.096L942.97,879.035L930.126,879.035C920.254,879.035 910.913,879.389 902.104,880.098C892.931,880.891 885.874,888.546 885.83,897.754C885.796,900.811 885.785,903.084 885.785,903.084C863.696,904.681 839.069,908.276 810.772,924.822C776.855,944.654 766.414,975.857 766.853,1006.57C767.215,1031.9 775.684,1056.59 781.704,1070.97Z"/>
    <path d="M1509.52,634.293C1509.52,630.012 1509.75,623.65 1510.23,615.206C1510.7,606.763 1510.94,600.995 1510.94,597.903C1510.94,596.714 1510.7,592.432 1510.23,585.059C1509.75,577.686 1509.52,571.264 1509.52,565.794C1509.52,540.582 1511.89,527.977 1516.65,527.977C1518.55,527.977 1520.22,528.215 1521.64,528.69C1571.36,528.69 1645.03,528.096 1742.66,526.906C1840.3,525.717 1913.38,525.123 1961.89,525.123C1974.03,525.123 1981.7,526.193 1984.91,528.333C1988.12,530.474 1989.72,534.636 1989.72,540.82L1989.72,550.81C1989.72,563.178 1989.84,581.432 1990.08,605.573C1990.32,629.715 1990.44,648.088 1990.44,660.694C1990.44,673.062 1987.11,679.246 1980.45,679.246C1967.13,679.246 1947.27,679.008 1920.87,678.532C1894.47,678.056 1874.61,677.819 1861.29,677.819L1861.29,1060.27C1859.62,1067.41 1855.58,1071.21 1849.16,1071.69C1840.83,1071.69 1828.7,1071.57 1812.77,1071.33C1796.83,1071.09 1784.7,1070.97 1776.38,1070.97C1775.9,1070.97 1775.42,1071.21 1774.95,1071.69C1764.48,1071.69 1749.8,1071.57 1730.89,1071.33C1711.98,1071.09 1697.89,1070.97 1688.61,1070.97L1667.21,1070.97C1662.45,1071.45 1655.55,1071.69 1646.51,1071.69L1632.24,1054.56C1632.24,1018.41 1633.43,964.659 1635.81,893.306C1638.19,821.952 1639.38,768.199 1639.38,732.047C1639.38,730.382 1639.32,727.647 1639.2,723.841C1639.08,720.036 1639.02,716.944 1639.02,714.566C1639.02,712.187 1638.84,709.214 1638.49,705.646C1638.13,702.079 1637.54,699.165 1636.7,696.906C1635.87,694.646 1634.86,692.387 1633.67,690.127C1632.48,687.868 1630.88,686.203 1628.85,685.132C1626.83,684.062 1624.39,683.527 1621.54,683.527L1519.51,683.527C1512.85,681.624 1509.52,665.213 1509.52,634.293Z"/>
    <path d="M1249.08,916.656C1249.1,817.517 1250.53,716.975 1253.36,615.028C1252.4,595.049 1251.93,580.302 1251.93,570.789L1251.93,560.086C1250.98,549.621 1250.5,541.058 1250.5,534.398C1250.5,529.879 1252.64,525.836 1256.92,522.268C1295.93,525.123 1355.39,526.55 1435.31,526.55C1454.34,526.55 1467.42,526.074 1474.55,525.123L1474.55,1070.97L1333.09,1070.97C1341.26,1046.97 1343.18,1016.38 1331.94,988.981C1318.43,956.039 1287.87,923.948 1249.08,916.656Z"/>
    <g transform="matrix(1.5313,0,0,1.5313,-511.901,-1427.11)">
        <path d="M1041,1763C1041,1763 1075.2,1749.72 1099,1735C1122.8,1720.28 1145.65,1703.99 1157,1692C1168.35,1680.02 1193.03,1652 1193.03,1652C1193.03,1652 1209.13,1649.23 1231,1672C1252.87,1694.77 1242.6,1742.05 1222,1756C1201.4,1769.95 1200.3,1767.5 1168,1767.76C1135.7,1768.02 1082.18,1768.26 1061,1767.76C1050.15,1767.5 1041,1763 1041,1763ZM845,1766C874.282,1768.37 938.483,1769.65 978,1761C1017.52,1752.35 1063.83,1743.89 1112,1707C1160.17,1670.11 1174.17,1651 1183,1639C1191.83,1627 1197.14,1603.84 1189,1584C1180.86,1564.16 1161.07,1544.1 1136,1546C1110.93,1547.9 1097.75,1556.87 1085,1573C1072.26,1589.13 1047.86,1611.82 1030,1620C1012.14,1628.18 973.137,1649.14 918,1649C862.863,1648.86 844.287,1648.05 831,1654C817.713,1659.95 800.87,1675.35 798,1694C795.13,1712.65 796.852,1730.99 807,1743C817.148,1755.01 828.236,1764.64 845,1766ZM863,1632C863,1632 831.654,1573.59 872,1550C912.346,1526.41 939.613,1550.8 963,1517C986.387,1483.2 977.854,1422.95 994.891,1418C1007.97,1414.2 1025.84,1439.94 1037,1466C1048.56,1493.01 1083.35,1491.71 1091,1505C1098.65,1518.29 1098,1538 1098,1538C1098,1538 1090.05,1542.84 1073,1563C1055.95,1583.16 1046.21,1590 1032,1599C1017.79,1608 992.409,1621.75 966,1628C939.591,1634.25 863,1632 863,1632Z"/>
    </g>
</svg>
